# xmcd
#
# Track frame offsets:
#	150
#	23936
#	29375
#	41255
#	50977
#	68178
#	88184
#	98416
#	112423
#	130205
#	150931
#	162862
#	184212
#	212169
#
# Disc length: 3140 seconds
#
# Revision: 2
# Processed by: cddbd v1.5.1PL0 Copyright (c) Steve Scherf et al.
# Submitted via: audiograbber 1.83.01
#
DISCID=bf0c420e
DTITLE=Jonny Greenwood - Bodysong
DYEAR=2003
DGENRE=Soundtrack
TTITLE0=Moon Trills
TTITLE1=Moon Mall
TTITLE2=Trench
TTITLE3=Iron Swallow
TTITLE4=Clockwork Tin Soldiers
TTITLE5=Convergence
TTITLE6=Nudnik Headache
TTITLE7=Peartree
TTITLE8=Splitter
TTITLE9=Bode Radio - Glass Light - Broken Hearts
TTITLE10=24 Hour Charleston
TTITLE11=Milky Drops From Heaven
TTITLE12=Tehellet
TTITLE13=Data Track
EXTD=YEAR: 2003
EXTT0=
EXTT1=
EXTT2=
EXTT3=
EXTT4=
EXTT5=
EXTT6=
EXTT7=
EXTT8=
EXTT9=
EXTT10=
EXTT11=
EXTT12=
EXTT13=
PLAYORDER=
